<?xml version="1.0" encoding="UTF-8"?> <svg xmlns="http://www.w3.org/2000/svg" width="116" height="41" viewBox="0 0 116 41" fill="none"> <path d="M98.8939 0.261506C98.4399 0.454858 97.3218 1.40481 96.1617 2.57333C92.0761 6.68417 88.1754 13.3254 86.5025 19.0167C86.3512 19.5211 86.1914 20.0759 86.141 20.2357C86.0401 20.5635 85.1911 21.4294 84.1402 22.2785C82.1731 23.8673 79.9621 24.8677 78.7179 24.7332C77.7848 24.6323 77.2384 24.2624 76.9021 23.4806C76.7592 23.1444 76.7172 22.8922 76.7172 22.2953C76.7172 21.5891 76.8433 20.8241 76.9694 20.8241C77.003 20.8241 77.2804 20.9923 77.5999 21.2024C78.3733 21.732 79.0122 22.001 79.5586 22.0599C79.9789 22.1019 80.0882 22.0767 80.6767 21.7909C82.5598 20.8577 84.7287 17.3606 85.149 14.578C85.2667 13.7626 85.2079 13.2497 84.8968 12.6108C84.569 11.9215 84.5185 11.8795 83.0474 11.1397C82.5598 10.8959 82.4253 10.8623 81.8284 10.8707C80.7271 10.8791 79.7352 11.4003 78.3733 12.6865C76.4818 14.4855 74.6155 17.3858 73.7917 19.8153C73.4974 20.6812 73.1948 21.152 72.4046 21.9674C71.0175 23.3881 69.8826 23.9178 69.3109 23.3881C69.0083 23.1107 69.0251 22.7745 69.3782 21.7068C69.8658 20.2609 70.9418 18.2349 72.4718 15.8894L73.3041 14.6116L73.1359 14.2333C72.909 13.7121 72.2953 13.0732 71.7825 12.8378C71.1604 12.5436 71.0091 12.6277 70.3786 13.5944C67.8818 17.4194 65.1412 21.0007 63.3758 22.7576C62.4932 23.6403 61.8795 24.0355 61.6357 23.8841C60.8707 23.405 62.5016 20.1684 66.377 14.4771C67.0832 13.4515 67.411 12.8883 67.411 12.7285C67.411 12.1989 66.2677 11.4928 65.4103 11.4928C64.6452 11.5012 64.1409 11.8795 63.2582 13.1321C62.1905 14.6284 60.568 17.6969 59.719 19.8153C59.2818 20.9082 58.8363 21.6228 58.0965 22.4298C57.0372 23.5731 55.8519 24.1447 55.44 23.6908C54.8599 23.0435 55.9864 20.5719 58.7354 16.4695C60.3915 14.0063 60.3915 14.0148 60.3242 13.7541C60.1729 13.1489 59.4836 12.552 58.7942 12.4259C58.3991 12.3502 58.3403 12.3671 57.8275 12.6529C55.5156 13.9223 52.7078 16.377 50.396 19.1596C50.0261 19.6052 49.7067 19.9666 49.6983 19.9498C49.6562 19.9078 50.7911 17.8061 51.3291 16.9234C51.9092 15.9651 52.7162 14.7966 53.3804 13.9727C53.7082 13.5608 53.8764 13.2666 53.8595 13.1573C53.7923 12.6949 52.6742 12.1821 51.6066 12.1064C50.5557 12.0308 50.3204 12.2073 49.4377 13.6533C48.8912 14.5528 47.0838 18.2097 46.4785 19.6472C45.9573 20.8662 45.6379 21.3285 44.6291 22.2785C43.7296 23.1275 43.0907 23.5226 42.5274 23.5815C42.1743 23.6151 42.0903 23.5899 41.9053 23.405C41.7372 23.2368 41.6867 23.1023 41.6867 22.8417C41.6867 21.7404 43.3344 18.3946 45.268 15.5364C45.5958 15.0572 45.806 14.6705 45.806 14.5276C45.806 14.2501 45.31 13.5019 44.9485 13.2329C44.1919 12.6613 43.6623 12.6024 43.3344 13.0228C42.6955 13.8718 40.989 16.9991 40.4342 18.3442C40.1399 19.0419 39.8457 19.4202 38.198 21.152C36.4242 23.0183 34.6672 24.2372 33.9947 24.0691C33.877 24.0355 33.7257 23.9178 33.65 23.8001C33.5239 23.6151 33.5239 23.5311 33.608 23.1359C34.0283 21.2445 36.9118 17.5623 39.3245 15.8306C40.1567 15.2337 41.2328 14.6705 41.8297 14.5191C42.3509 14.3846 42.4013 14.2922 42.3172 13.544C42.25 12.8714 41.9137 12.1905 41.5186 11.9299C41.258 11.7534 41.1487 11.7366 40.5518 11.7618C39.0807 11.8458 37.0883 13.006 35.0539 14.9815C33.5407 16.4443 32.3302 18.0583 31.4475 19.7985C30.4471 21.7573 29.8922 24.254 30.1613 25.6243C30.4891 27.2888 31.2457 28.0706 32.5151 28.0874C33.1792 28.0874 33.8434 27.81 34.7092 27.1627C35.3986 26.6415 37.1135 24.9266 38.1476 23.7244C38.6351 23.1612 38.921 22.8837 38.8873 23.0098C38.6183 24.0102 38.6099 26.1035 38.8621 26.7928C39.0302 27.2384 39.4338 27.6923 39.8121 27.8521C40.6695 28.222 41.8213 27.6419 43.5614 25.9606C44.0742 25.473 44.4693 25.1367 44.4357 25.2124C44.3096 25.5571 44.2844 26.1876 44.3769 26.5406C44.5114 27.0534 45.1251 27.6419 45.7219 27.8437C46.5878 28.1295 47.5714 27.9109 47.5714 27.4317C47.5714 27.3309 47.6302 27.0198 47.6975 26.7508C48.3868 24.0439 51.0938 20.2188 53.5905 18.4198C54.179 17.9995 55.0533 17.4615 55.1542 17.4615C55.1962 17.4615 55.0365 17.6969 54.8095 17.9827C53.5233 19.6388 52.5901 21.4378 52.1362 23.1612C51.8588 24.2036 51.8167 25.9269 52.0605 26.5406C52.4388 27.541 52.9432 27.9193 53.9184 27.9193C54.8431 27.9277 55.2803 27.6671 56.6169 26.3389C57.2222 25.7336 57.8527 25.0695 58.0208 24.8593L58.3319 24.481V25.4478C58.3319 27.0618 58.6513 27.8016 59.5088 28.2472C59.9039 28.4573 60.0468 28.4826 60.4756 28.4489C61.8963 28.3481 63.3843 26.9694 65.5027 23.8085C66.0744 22.951 66.4863 22.4046 66.4527 22.5475C65.9819 24.4558 65.9735 26.1539 66.4275 27.045C66.5367 27.2636 66.7721 27.5326 66.9823 27.6755C67.4531 28.0034 68.092 28.0286 68.7057 27.726C69.622 27.272 71.2529 25.8513 72.4298 24.4726L72.9342 23.8673L72.9762 24.7248C73.0603 26.4397 73.716 27.4654 75.0527 27.9782C75.7168 28.2388 77.0114 28.2388 78.0202 27.9782C80.2311 27.4149 82.5514 25.9942 84.7707 23.8421L85.6114 23.0267L85.6198 24.5903C85.6282 26.3473 85.7375 26.961 86.2503 28.037C86.7883 29.1635 88.0577 30.1134 89.1674 30.2143C90.0585 30.2984 91.1429 29.9117 91.9668 29.2223C92.4292 28.8356 93.0344 27.9613 93.2698 27.3393C93.4548 26.8601 93.48 25.8008 93.3203 25.4225L93.2194 25.1872L92.7906 25.4898C92.0004 26.0278 91.2606 26.0867 90.5461 25.6411C90.0081 25.3049 89.6466 24.8089 89.386 23.9934C89.1758 23.3629 89.1506 23.1864 89.1506 21.9842L89.1422 20.6644L90.5377 19.2521C92.1265 17.6464 92.3871 17.3606 93.8163 15.654C96.5988 12.2998 99.0788 8.60929 100.743 5.31389C102.097 2.63218 102.214 1.54772 101.231 0.740683C100.592 0.219472 99.5075 -0.00750663 98.8939 0.261506ZM97.5068 6.56648C97.5068 6.81868 96.5232 8.57566 95.4135 10.3158C94.1693 12.2662 91.1345 16.4947 90.8487 16.6712C90.8067 16.6965 91.0673 16.1248 91.4372 15.3934C92.9672 12.3755 95.5816 8.34868 96.9015 6.97C97.2714 6.6001 97.5068 6.43197 97.5068 6.56648ZM83.0558 13.855C82.2571 16.1837 79.8024 19.0167 77.768 19.9582C77.4233 20.118 77.1375 20.2357 77.1207 20.2188C77.0534 20.1516 77.6839 18.8317 78.1043 18.1676C79.5586 15.8558 80.8196 14.4771 82.0806 13.8214C82.4925 13.6028 83.1482 13.3422 83.1987 13.3843C83.2071 13.3927 83.1482 13.6028 83.0558 13.855Z" fill="#FF772E"></path> <path d="M20.7122 3.10289C20.1153 3.31306 19.426 3.96878 19.0393 4.68334C18.5012 5.70054 17.8035 6.44873 12.0534 12.2493C9.32121 14.9983 6.60587 17.7977 6.00899 18.4702C1.0743 24.027 -0.825595 28.037 0.326113 30.4833C0.948204 31.7947 2.62112 32.7447 4.59668 32.9044L5.21877 32.9548L5.15152 32.3748C4.89932 30.2143 5.31965 27.7511 6.33685 25.3216C7.47175 22.5979 9.08582 20.202 14.1046 13.7625C14.8023 12.863 15.7018 11.6692 16.1054 11.1144C16.5005 10.5596 16.8031 10.1813 16.7779 10.2737C16.7443 10.3662 16.6098 10.8202 16.4668 11.2825C15.6766 13.855 14.5249 19.4538 14.3652 21.4966C14.3147 22.0767 14.2391 22.8164 14.1886 23.1527C13.8692 25.1787 14.7183 26.5154 16.7947 27.2215C17.0469 27.314 17.2739 27.3812 17.3159 27.3812C17.3495 27.3812 17.442 27.087 17.5177 26.7255C18.4088 22.6567 21.4436 17.1672 25.3779 12.5015C26.353 11.3414 28.8918 8.74374 29.3962 8.39066L29.6737 8.19731L29.2785 8.86144C25.6469 14.9394 23.3603 20.1599 22.4608 24.4389C22.2674 25.33 22.2338 25.7083 22.2338 26.9189C22.2254 28.1042 22.2506 28.4237 22.3851 28.8104C22.7298 29.8276 23.1753 30.3067 24.1169 30.6766C24.7474 30.9204 26.1261 30.9372 26.807 30.7103C27.0592 30.6262 27.303 30.5253 27.345 30.4917C27.3786 30.4497 27.3702 30.2227 27.3114 29.9705C26.58 26.5994 27.799 19.9498 30.2957 13.6364C30.8422 12.2577 32.1368 9.59281 32.8514 8.39907C33.4987 7.30621 34.3646 6.05362 34.9362 5.37268C35.3481 4.89351 35.3649 4.73378 35.0455 4.32186C34.7176 3.90152 33.961 3.82587 32.9775 4.09488C32.078 4.34708 30.3126 5.06164 29.4971 5.49878C27.5552 6.54121 24.8903 8.6849 22.3095 11.2825C21.5697 12.0307 20.7038 12.9471 20.3759 13.3254C20.0565 13.7037 19.7875 13.9979 19.7706 13.9811C19.7202 13.939 20.4684 11.8206 20.9896 10.5175C21.679 8.80259 22.2926 7.45753 23.024 6.07043C24.3018 3.62411 24.2514 3.77543 23.8058 3.47279C23.0156 2.92636 21.679 2.76663 20.7122 3.10289Z" fill="#FF772E"></path> <path d="M101.794 24.9181C102.273 25.8092 102.711 26.8685 102.879 27.5242C103.148 28.617 103.156 28.6423 103.03 28.6423C102.963 28.6423 102.854 28.4321 102.769 28.1547C102.551 27.4485 102.013 26.3388 101.66 25.8597C101.046 25.019 100.155 24.7752 99.5665 25.288C98.7091 26.0446 97.3052 29.1046 97.0698 30.7271C96.9437 31.6434 97.0614 32.0469 97.5069 32.2235C98.2131 32.5093 97.9273 32.5345 94.842 32.4757C83.1988 32.2487 65.0153 32.1899 55.726 32.3412C42.4435 32.5597 28.4296 33.0053 13.2725 33.6862C8.61522 33.8964 7.97632 33.9384 7.97632 34.0393C7.97632 34.0982 8.38824 34.1066 9.17847 34.0729C11.6332 33.9637 23.3773 33.6862 33.2803 33.5013C40.7033 33.3668 64.8051 33.3668 70.8579 33.5013C81.1897 33.7283 90.7228 34.0141 95.9097 34.2411L97.137 34.2999L97.2799 35.3592C97.5406 37.3179 98.0786 39.016 98.7091 39.8651C99.1967 40.5292 99.9196 41 100.449 41C100.811 41 100.886 40.9664 101.197 40.6553C102.458 39.3943 103.165 37.8139 103.492 35.5021L103.593 34.7623L103.896 34.8043C107.301 35.3339 107.755 35.3507 110.285 35.1154C112.664 34.8884 113.337 34.922 114.404 35.2835C115.716 35.7374 115.917 35.5945 115.985 34.1906C116.018 33.5433 116.002 33.3668 115.892 33.2827C115.707 33.123 115.253 33.1398 114.783 33.3163C114.076 33.5769 112.53 33.5265 110.537 33.1734C108.915 32.8876 108.873 32.8876 106.376 32.8876H103.854V30.5337C103.854 28.5498 103.829 28.079 103.703 27.5242C103.467 26.549 103.038 25.7588 102.341 25.0442C101.609 24.3044 101.433 24.2624 101.794 24.9181Z" fill="#FF772E"></path> </svg> 